<?xml version="1.0" standalone="no"?>
<!DOCTYPE svg PUBLIC "-//W3C//DTD SVG 20010904//EN"
 "http://www.w3.org/TR/2001/REC-SVG-20010904/DTD/svg10.dtd">
<svg version="1.0" xmlns="http://www.w3.org/2000/svg"
 width="1000.000000pt" height="1000.000000pt" viewBox="0 0 1000.000000 1000.000000"
 preserveAspectRatio="xMidYMid meet">
<metadata>
Created by potrace 1.14, written by Peter Selinger 2001-2017
</metadata>
<g transform="translate(0.000000,1000.000000) scale(0.100000,-0.100000)"
fill="#000000" stroke="none">
<path d="M4978 6845 c-29 -15 -198 -112 -218 -124 -8 -6 -96 -56 -194 -113
-204 -117 -199 -115 -458 -264 -534 -309 -630 -364 -639 -364 -5 0 -9 -4 -9
-9 0 -5 -13 -14 -29 -21 -16 -6 -31 -17 -33 -23 -2 -7 -4 -191 -3 -409 0 -261
-3 -399 -10 -401 -9 -2 -849 -1 -866 2 -4 1 -14 16 -23 34 -9 17 -27 50 -41
72 -13 22 -36 63 -51 90 -15 28 -34 61 -44 75 -9 14 -30 50 -47 80 -40 73
-203 354 -210 360 -2 3 -219 5 -481 5 l-477 0 -111 -192 c-62 -106 -114 -198
-118 -205 -3 -7 -15 -28 -27 -47 -32 -54 -169 -291 -197 -341 l-24 -46 149
-259 c83 -143 159 -275 169 -294 10 -18 24 -41 29 -50 6 -9 36 -63 69 -119 32
-56 63 -102 70 -103 6 0 222 -1 479 -2 l468 -2 27 45 c15 25 30 52 34 60 4 8
85 150 181 315 l174 300 429 1 c236 0 434 -1 439 -3 7 -2 10 -144 10 -404 0
-221 2 -404 5 -408 3 -4 25 -18 50 -32 25 -13 47 -27 48 -31 2 -5 7 -8 12 -8
7 0 116 -62 795 -455 160 -92 306 -177 325 -187 19 -11 94 -54 165 -96 72 -41
148 -85 169 -97 l39 -22 61 37 c34 20 140 82 236 137 96 56 191 110 210 122
19 11 53 31 75 43 22 12 49 28 60 35 11 7 32 18 48 25 15 7 27 16 27 20 0 4 4
8 9 8 5 0 42 19 83 43 40 24 96 56 123 71 164 92 642 371 655 382 12 12 14 77
15 416 l0 403 433 0 c239 0 437 -2 442 -5 4 -3 29 -41 54 -85 26 -44 50 -87
55 -95 5 -8 76 -131 157 -272 142 -247 150 -258 179 -259 39 -1 883 -1 911 0
17 1 51 53 166 254 80 138 187 324 238 411 104 180 100 154 33 268 -15 26 -57
98 -93 160 -35 62 -70 122 -76 133 -6 11 -62 108 -124 215 -61 107 -116 199
-121 205 -13 14 -947 14 -964 0 -7 -5 -75 -120 -152 -255 -187 -326 -255 -444
-259 -449 -9 -10 -866 -6 -873 4 -4 6 -7 189 -7 408 l1 398 -90 51 c-49 29
-121 70 -160 93 -70 42 -439 255 -505 293 -19 10 -218 125 -442 254 -372 215
-409 234 -430 223z"/>
</g>
</svg>
